<svg xmlns="http://www.w3.org/2000/svg" viewBox="0 0 512 512" fill="none">
  <defs>
    <linearGradient id="bg" x1="0" y1="0" x2="512" y2="512" gradientUnits="userSpaceOnUse">
      <stop offset="0" stop-color="#1f1f23"/>
      <stop offset="1" stop-color="#0a0a0c"/>
    </linearGradient>
    <linearGradient id="play" x1="160" y1="160" x2="352" y2="352" gradientUnits="userSpaceOnUse">
      <stop offset="0" stop-color="#ffffff"/>
      <stop offset="1" stop-color="#cfd1d6"/>
    </linearGradient>
  </defs>
  <rect width="512" height="512" rx="112" fill="url(#bg)"/>
  <g fill="#2d2f36">
    <rect x="48" y="96"  width="40" height="40" rx="6"/>
    <rect x="48" y="160" width="40" height="40" rx="6"/>
    <rect x="48" y="224" width="40" height="40" rx="6"/>
    <rect x="48" y="288" width="40" height="40" rx="6"/>
    <rect x="48" y="352" width="40" height="40" rx="6"/>
    <rect x="424" y="96"  width="40" height="40" rx="6"/>
    <rect x="424" y="160" width="40" height="40" rx="6"/>
    <rect x="424" y="224" width="40" height="40" rx="6"/>
    <rect x="424" y="288" width="40" height="40" rx="6"/>
    <rect x="424" y="352" width="40" height="40" rx="6"/>
  </g>
  <path d="M205 168 L205 344 Q205 358 217 350 L356 263 Q368 256 356 249 L217 162 Q205 154 205 168 Z" fill="url(#play)"/>
</svg>
